<svg version="1.2" xmlns="http://www.w3.org/2000/svg" xmlns:xlink="http://www.w3.org/1999/xlink" overflow="visible" preserveAspectRatio="none" viewBox="0 0 14 14" width="14" height="14"><g transform="translate(0, 0)"><defs><path id="path-16204196979032310" d="M7.477853614623795 14.000000000000009 C7.477853614623795 14.000000000000009 0.7726925270742714 14.000000000000009 0.7726925270742714 14.000000000000009 C0.3458211914619524 14.000000000000009 0 13.653964201320065 0 13.227259146589908 C0 13.227259146589908 0 0.7726865306787638 0 0.7726865306787638 C0 0.34587283048591716 0.3458755146148682 0 0.7726925270742714 0 C0.7726925270742714 0 13.227361796078647 0 13.227361796078647 0 C13.654070162232216 0 13.999999999999998 0.34587283048591716 13.999999999999998 0.7726865306787638 C13.999999999999998 0.7726865306787638 13.999999999999998 13.227259146589908 13.999999999999998 13.227259146589908 C13.999999999999998 13.654018524051404 13.654015839079303 14.000000000000009 13.227361796078647 14.000000000000009 C13.227361796078647 14.000000000000009 9.659797374639627 14.000000000000009 9.659797374639627 14.000000000000009 C9.659797374639627 14.000000000000009 9.659797374639625 8.578428443382144 9.659797374639625 8.578428443382144 C9.659797374639625 8.578428443382144 11.47956867416585 8.578428443382144 11.47956867416585 8.578428443382144 C11.47956867416585 8.578428443382144 11.752053609191478 6.465545807643218 11.752053609191478 6.465545807643218 C11.752053609191478 6.465545807643218 9.659797374639625 6.465545807643218 9.659797374639625 6.465545807643218 C9.659797374639625 6.465545807643218 9.659797374639625 5.1166037428361975 9.659797374639625 5.1166037428361975 C9.659797374639625 4.504875465138392 9.829665873807317 4.088002824782037 10.706876147091576 4.088002824782037 C10.706876147091576 4.088002824782037 11.825715804545297 4.087513920199913 11.825715804545297 4.087513920199913 C11.825715804545297 4.087513920199913 11.825715804545297 2.197734742102837 11.825715804545297 2.197734742102837 C11.632216733859236 2.1719857674443914 10.968061866310721 2.1144579949479905 10.195369339236448 2.1144579949479905 C8.58224331340191 2.1144579949479905 7.4778536146237915 3.0991118233424833 7.4778536146237915 4.907352581687813 C7.4778536146237915 4.907352581687813 7.4778536146237915 6.465545807643218 7.4778536146237915 6.465545807643218 C7.4778536146237915 6.465545807643218 5.65341052394681 6.465545807643218 5.65341052394681 6.465545807643218 C5.65341052394681 6.465545807643218 5.65341052394681 8.578428443382144 5.65341052394681 8.578428443382144 C5.65341052394681 8.578428443382144 7.4778536146237915 8.578428443382144 7.4778536146237915 8.578428443382144 C7.4778536146237915 8.578428443382144 7.4778536146237915 14.000000000000009 7.4778536146237915 14.000000000000009 C7.4778536146237915 14.000000000000009 7.477853614623795 14.000000000000009 7.477853614623795 14.000000000000009 Z" vector-effect="non-scaling-stroke"/></defs><g transform="translate(0, 0)"><path d="M7.477853614623795 14.000000000000009 C7.477853614623795 14.000000000000009 0.7726925270742714 14.000000000000009 0.7726925270742714 14.000000000000009 C0.3458211914619524 14.000000000000009 0 13.653964201320065 0 13.227259146589908 C0 13.227259146589908 0 0.7726865306787638 0 0.7726865306787638 C0 0.34587283048591716 0.3458755146148682 0 0.7726925270742714 0 C0.7726925270742714 0 13.227361796078647 0 13.227361796078647 0 C13.654070162232216 0 13.999999999999998 0.34587283048591716 13.999999999999998 0.7726865306787638 C13.999999999999998 0.7726865306787638 13.999999999999998 13.227259146589908 13.999999999999998 13.227259146589908 C13.999999999999998 13.654018524051404 13.654015839079303 14.000000000000009 13.227361796078647 14.000000000000009 C13.227361796078647 14.000000000000009 9.659797374639627 14.000000000000009 9.659797374639627 14.000000000000009 C9.659797374639627 14.000000000000009 9.659797374639625 8.578428443382144 9.659797374639625 8.578428443382144 C9.659797374639625 8.578428443382144 11.47956867416585 8.578428443382144 11.47956867416585 8.578428443382144 C11.47956867416585 8.578428443382144 11.752053609191478 6.465545807643218 11.752053609191478 6.465545807643218 C11.752053609191478 6.465545807643218 9.659797374639625 6.465545807643218 9.659797374639625 6.465545807643218 C9.659797374639625 6.465545807643218 9.659797374639625 5.1166037428361975 9.659797374639625 5.1166037428361975 C9.659797374639625 4.504875465138392 9.829665873807317 4.088002824782037 10.706876147091576 4.088002824782037 C10.706876147091576 4.088002824782037 11.825715804545297 4.087513920199913 11.825715804545297 4.087513920199913 C11.825715804545297 4.087513920199913 11.825715804545297 2.197734742102837 11.825715804545297 2.197734742102837 C11.632216733859236 2.1719857674443914 10.968061866310721 2.1144579949479905 10.195369339236448 2.1144579949479905 C8.58224331340191 2.1144579949479905 7.4778536146237915 3.0991118233424833 7.4778536146237915 4.907352581687813 C7.4778536146237915 4.907352581687813 7.4778536146237915 6.465545807643218 7.4778536146237915 6.465545807643218 C7.4778536146237915 6.465545807643218 5.65341052394681 6.465545807643218 5.65341052394681 6.465545807643218 C5.65341052394681 6.465545807643218 5.65341052394681 8.578428443382144 5.65341052394681 8.578428443382144 C5.65341052394681 8.578428443382144 7.4778536146237915 8.578428443382144 7.4778536146237915 8.578428443382144 C7.4778536146237915 8.578428443382144 7.4778536146237915 14.000000000000009 7.4778536146237915 14.000000000000009 C7.4778536146237915 14.000000000000009 7.477853614623795 14.000000000000009 7.477853614623795 14.000000000000009 Z" style="stroke: rgb(140, 140, 140); stroke-width: 0; stroke-linecap: butt; stroke-linejoin: miter; fill: rgb(255, 255, 255);" vector-effect="non-scaling-stroke"/></g></g></svg>