<svg version="1.2" xmlns="http://www.w3.org/2000/svg" xmlns:xlink="http://www.w3.org/1999/xlink" overflow="visible" preserveAspectRatio="none" viewBox="0 0 16 16" width="16" height="16"><g transform="translate(0, 0)"><defs><path id="path-162155071150851749" d="M11.032727272727273 8 C11.032727272727273 8 15.581363636363637 3.4513636363636366 15.581363636363637 3.4513636363636366 C16.139545454545456 2.8931818181818185 16.139545454545456 1.9881818181818187 15.581363636363637 1.4295454545454551 C15.581363636363637 1.4295454545454551 14.570454545454547 0.4186363636363637 14.570454545454547 0.4186363636363637 C14.012272727272729 -0.13954545454545447 13.107272727272727 -0.13954545454545447 12.548636363636364 0.4186363636363637 C12.548636363636364 0.4186363636363637 8 4.967272727272728 8 4.967272727272728 C8 4.967272727272728 3.4513636363636366 0.4186363636363637 3.4513636363636366 0.4186363636363637 C2.8931818181818185 -0.13954545454545447 1.9881818181818187 -0.13954545454545447 1.4295454545454551 0.4186363636363637 C1.4295454545454551 0.4186363636363637 0.4186363636363637 1.4295454545454545 0.4186363636363637 1.4295454545454545 C-0.13954545454545447 1.9877272727272726 -0.13954545454545447 2.892727272727273 0.4186363636363637 3.451363636363636 C0.4186363636363637 3.451363636363636 4.967272727272728 8 4.967272727272728 8 C4.967272727272728 8 0.4186363636363637 12.548636363636364 0.4186363636363637 12.548636363636364 C-0.13954545454545447 13.10681818181818 -0.13954545454545447 14.011818181818182 0.4186363636363637 14.570454545454547 C0.4186363636363637 14.570454545454547 1.4295454545454545 15.581363636363637 1.4295454545454545 15.581363636363637 C1.9877272727272726 16.139545454545456 2.8931818181818185 16.139545454545456 3.451363636363636 15.581363636363637 C3.451363636363636 15.581363636363637 8 11.032727272727273 8 11.032727272727273 C8 11.032727272727273 12.548636363636364 15.581363636363635 12.548636363636364 15.581363636363635 C13.10681818181818 16.139545454545452 14.012272727272727 16.139545454545452 14.570454545454547 15.581363636363635 C14.570454545454547 15.581363636363635 15.581363636363637 14.570454545454544 15.581363636363637 14.570454545454544 C16.139545454545456 14.012272727272727 16.139545454545456 13.107272727272726 15.581363636363637 12.54863636363636 C15.581363636363637 12.54863636363636 11.032727272727273 8 11.032727272727273 8 Z" vector-effect="non-scaling-stroke"/></defs><g transform="translate(-6.055761952500853e-17, -6.055761952500853e-17)"><path d="M11.032727272727273 8 C11.032727272727273 8 15.581363636363637 3.4513636363636366 15.581363636363637 3.4513636363636366 C16.139545454545456 2.8931818181818185 16.139545454545456 1.9881818181818187 15.581363636363637 1.4295454545454551 C15.581363636363637 1.4295454545454551 14.570454545454547 0.4186363636363637 14.570454545454547 0.4186363636363637 C14.012272727272729 -0.13954545454545447 13.107272727272727 -0.13954545454545447 12.548636363636364 0.4186363636363637 C12.548636363636364 0.4186363636363637 8 4.967272727272728 8 4.967272727272728 C8 4.967272727272728 3.4513636363636366 0.4186363636363637 3.4513636363636366 0.4186363636363637 C2.8931818181818185 -0.13954545454545447 1.9881818181818187 -0.13954545454545447 1.4295454545454551 0.4186363636363637 C1.4295454545454551 0.4186363636363637 0.4186363636363637 1.4295454545454545 0.4186363636363637 1.4295454545454545 C-0.13954545454545447 1.9877272727272726 -0.13954545454545447 2.892727272727273 0.4186363636363637 3.451363636363636 C0.4186363636363637 3.451363636363636 4.967272727272728 8 4.967272727272728 8 C4.967272727272728 8 0.4186363636363637 12.548636363636364 0.4186363636363637 12.548636363636364 C-0.13954545454545447 13.10681818181818 -0.13954545454545447 14.011818181818182 0.4186363636363637 14.570454545454547 C0.4186363636363637 14.570454545454547 1.4295454545454545 15.581363636363637 1.4295454545454545 15.581363636363637 C1.9877272727272726 16.139545454545456 2.8931818181818185 16.139545454545456 3.451363636363636 15.581363636363637 C3.451363636363636 15.581363636363637 8 11.032727272727273 8 11.032727272727273 C8 11.032727272727273 12.548636363636364 15.581363636363635 12.548636363636364 15.581363636363635 C13.10681818181818 16.139545454545452 14.012272727272727 16.139545454545452 14.570454545454547 15.581363636363635 C14.570454545454547 15.581363636363635 15.581363636363637 14.570454545454544 15.581363636363637 14.570454545454544 C16.139545454545456 14.012272727272727 16.139545454545456 13.107272727272726 15.581363636363637 12.54863636363636 C15.581363636363637 12.54863636363636 11.032727272727273 8 11.032727272727273 8 Z" style="stroke-width: 0; stroke-linecap: butt; stroke-linejoin: miter; fill: rgb(227, 34, 34);" vector-effect="non-scaling-stroke"/></g></g></svg>