<svg version="1.2" xmlns="http://www.w3.org/2000/svg" xmlns:xlink="http://www.w3.org/1999/xlink" overflow="visible" preserveAspectRatio="none" viewBox="0 0 327 38" width="327" height="38"><g transform="translate(1, 1)"><defs><path id="path-162067414584410176" d="M-2.514481678428382e-12 3.0000000000000004 C-2.514481678428382e-12 1.3431457506000002 1.3431457505974858 0 2.999999999997486 0 C2.999999999997486 0 321.9999999999999 0 321.9999999999999 0 C323.6568542493999 0 324.9999999999999 1.3431457506000002 324.9999999999999 3.0000000000000004 C324.9999999999999 3.0000000000000004 324.9999999999999 33 324.9999999999999 33 C324.9999999999999 34.6568542494 323.6568542493999 36 321.9999999999999 36 C321.9999999999999 36 2.999999999997486 36 2.999999999997486 36 C1.3431457505974858 36 -2.514481678428382e-12 34.6568542494 -2.514481678428382e-12 33 C-2.514481678428382e-12 33 -2.514481678428382e-12 3.0000000000000004 -2.514481678428382e-12 3.0000000000000004 Z" vector-effect="non-scaling-stroke"/></defs><g transform="translate(0, 0)"><path d="M-2.514481678428382e-12 3.0000000000000004 C-2.514481678428382e-12 1.3431457506000002 1.3431457505974858 0 2.999999999997486 0 C2.999999999997486 0 321.9999999999999 0 321.9999999999999 0 C323.6568542493999 0 324.9999999999999 1.3431457506000002 324.9999999999999 3.0000000000000004 C324.9999999999999 3.0000000000000004 324.9999999999999 33 324.9999999999999 33 C324.9999999999999 34.6568542494 323.6568542493999 36 321.9999999999999 36 C321.9999999999999 36 2.999999999997486 36 2.999999999997486 36 C1.3431457505974858 36 -2.514481678428382e-12 34.6568542494 -2.514481678428382e-12 33 C-2.514481678428382e-12 33 -2.514481678428382e-12 3.0000000000000004 -2.514481678428382e-12 3.0000000000000004 Z" style="stroke: rgb(135, 135, 135); stroke-width: 1; stroke-linecap: butt; stroke-linejoin: miter; fill: rgb(255, 255, 255);" vector-effect="non-scaling-stroke"/></g></g></svg>