<svg version="1.2" xmlns="http://www.w3.org/2000/svg" xmlns:xlink="http://www.w3.org/1999/xlink" overflow="visible" preserveAspectRatio="none" viewBox="0 0 14 12" width="14" height="12"><g transform="translate(0, 0)"><defs><path id="path-16204196979042312" d="M13.999999999999998 1.4205850487540734 C13.485590186065616 1.6615384615384408 12.931736808123489 1.824485373781118 12.35076597992604 1.8972914409533839 C12.94406292187592 1.5228602383532026 13.399307389798679 0.9291440953412821 13.613781769090801 0.22188515709640075 C13.058284909315029 0.568580715059594 12.444444444444445 0.8208017334777936 11.788695192815632 0.9560130010834328 C11.266067969712978 0.36749729144093535 10.51910547631626 0 9.692434113987213 0 C8.107295885425845 0 6.821271350589901 1.3564463705308774 6.821271350589901 3.0292524377031502 C6.821271350589901 3.266738894907921 6.845923578094746 3.4972914409533913 6.895228033104432 3.7191765980498412 C4.508070669718861 3.5926327193932726 2.392087808886542 2.38786565547129 0.9745847273581082 0.5529794149512267 C0.7272407113928663 1.0019501625135494 0.5859012736984156 1.5228602383532026 0.5859012736984156 2.0775731310942547 C0.5859012736984156 3.128060671722632 1.0929154193813564 4.0554712892740925 1.8637083993660855 4.598916576381359 C1.3936725949404212 4.584182015167928 0.9499324998532651 4.446370530877576 0.5620707871104046 4.22101841820153 C0.5620707871104046 4.22101841820153 0.5620707871104046 4.258288190682575 0.5620707871104046 4.258288190682575 C0.5620707871104046 5.726543878656539 1.5522685918882506 6.9512459371614215 2.867054058813173 7.228602383531952 C2.6262839701825413 7.299674972914393 2.372366026882667 7.33521126760562 2.1102306744145185 7.33521126760562 C1.9253389681282052 7.33521126760562 1.744555966426029 7.317009750812583 1.5695251511416293 7.281473456121365 C1.935199859130143 8.484507042253522 2.995245641838359 9.360780065005436 4.252509244585322 9.38418201516795 C3.26970710805894 10.197183098591545 2.0305218054821883 10.681690140845099 0.6853319246346211 10.681690140845099 C0.4536009860890939 10.681690140845099 0.22433527029406264 10.667822318526554 0 10.640086673889508 C1.2712331983330372 11.498158179848302 2.781593003463065 12.000000000000002 4.402887832364855 12.000000000000002 C9.686681927569413 12.000000000000002 12.575101250220103 7.384615384615379 12.575101250220103 3.381148429035769 C12.575101250220103 3.2494041170097296 12.572636027469631 3.1176598049837367 12.567705581968662 2.9885157096424586 C13.128954628162234 2.5612134344528608 13.616246991841278 2.0281690140844884 13.999999999999998 1.4205850487540734 Z" vector-effect="non-scaling-stroke"/></defs><g transform="translate(0, 0)"><path d="M13.999999999999998 1.4205850487540734 C13.485590186065616 1.6615384615384408 12.931736808123489 1.824485373781118 12.35076597992604 1.8972914409533839 C12.94406292187592 1.5228602383532026 13.399307389798679 0.9291440953412821 13.613781769090801 0.22188515709640075 C13.058284909315029 0.568580715059594 12.444444444444445 0.8208017334777936 11.788695192815632 0.9560130010834328 C11.266067969712978 0.36749729144093535 10.51910547631626 0 9.692434113987213 0 C8.107295885425845 0 6.821271350589901 1.3564463705308774 6.821271350589901 3.0292524377031502 C6.821271350589901 3.266738894907921 6.845923578094746 3.4972914409533913 6.895228033104432 3.7191765980498412 C4.508070669718861 3.5926327193932726 2.392087808886542 2.38786565547129 0.9745847273581082 0.5529794149512267 C0.7272407113928663 1.0019501625135494 0.5859012736984156 1.5228602383532026 0.5859012736984156 2.0775731310942547 C0.5859012736984156 3.128060671722632 1.0929154193813564 4.0554712892740925 1.8637083993660855 4.598916576381359 C1.3936725949404212 4.584182015167928 0.9499324998532651 4.446370530877576 0.5620707871104046 4.22101841820153 C0.5620707871104046 4.22101841820153 0.5620707871104046 4.258288190682575 0.5620707871104046 4.258288190682575 C0.5620707871104046 5.726543878656539 1.5522685918882506 6.9512459371614215 2.867054058813173 7.228602383531952 C2.6262839701825413 7.299674972914393 2.372366026882667 7.33521126760562 2.1102306744145185 7.33521126760562 C1.9253389681282052 7.33521126760562 1.744555966426029 7.317009750812583 1.5695251511416293 7.281473456121365 C1.935199859130143 8.484507042253522 2.995245641838359 9.360780065005436 4.252509244585322 9.38418201516795 C3.26970710805894 10.197183098591545 2.0305218054821883 10.681690140845099 0.6853319246346211 10.681690140845099 C0.4536009860890939 10.681690140845099 0.22433527029406264 10.667822318526554 0 10.640086673889508 C1.2712331983330372 11.498158179848302 2.781593003463065 12.000000000000002 4.402887832364855 12.000000000000002 C9.686681927569413 12.000000000000002 12.575101250220103 7.384615384615379 12.575101250220103 3.381148429035769 C12.575101250220103 3.2494041170097296 12.572636027469631 3.1176598049837367 12.567705581968662 2.9885157096424586 C13.128954628162234 2.5612134344528608 13.616246991841278 2.0281690140844884 13.999999999999998 1.4205850487540734 Z" style="stroke: rgb(140, 140, 140); stroke-width: 0; stroke-linecap: butt; stroke-linejoin: miter; fill: rgb(255, 255, 255);" vector-effect="non-scaling-stroke"/></g></g></svg>